<svg xmlns="http://www.w3.org/2000/svg" viewBox="0 0 512 512" role="img" aria-labelledby="title desc">
  <title id="title">Escudo institucional del IFR</title>
  <desc id="desc">Version vectorial simplificada del escudo del Instituto Fernando Ramirez para materiales ECOEMS.</desc>
  <defs>
    <style>
      .navy{fill:#1C1E5A}
      .line{fill:none;stroke:#1C1E5A;stroke-linecap:round;stroke-linejoin:round}
      .white{fill:#FFFFFF}
    </style>
  </defs>
  <circle cx="256" cy="256" r="232" class="navy"/>
  <circle cx="256" cy="256" r="190" class="white"/>
  <path class="line" stroke-width="16" d="M113 347c20 34 52 62 92 80"/>
  <path class="line" stroke-width="16" d="M399 347c-20 34-52 62-92 80"/>
  <path class="line" stroke-width="10" d="M138 334c14 22 30 40 50 55"/>
  <path class="line" stroke-width="10" d="M374 334c-14 22-30 40-50 55"/>
  <path class="line" stroke-width="10" d="M120 300c9 18 18 32 31 45"/>
  <path class="line" stroke-width="10" d="M392 300c-9 18-18 32-31 45"/>
  <path class="line" stroke-width="10" d="M108 262c5 17 10 29 19 41"/>
  <path class="line" stroke-width="10" d="M404 262c-5 17-10 29-19 41"/>
  <path class="line" stroke-width="10" d="M95 234c1 13 3 24 9 36"/>
  <path class="line" stroke-width="10" d="M417 234c-1 13-3 24-9 36"/>
  <path class="line" stroke-width="12" d="M205 425c15 10 32 18 51 23c19-5 36-13 51-23"/>
  <path class="navy" d="M256 108c-36 42-74 72-132 80v132c0 66 55 118 132 150c77-32 132-84 132-150V188c-58-8-96-38-132-80Z"/>
  <path class="white" d="M256 137c-31 35-64 59-114 66v111c0 55 48 99 114 127c66-28 114-72 114-127V203c-50-7-83-31-114-66Z"/>
  <path class="navy" d="M256 160c-24 27-50 46-90 52v92c0 46 38 83 90 106c52-23 90-60 90-106v-92c-40-6-66-25-90-52Z"/>
  <path class="white" d="M256 160v250c52-23 90-60 90-106v-92c-40-6-66-25-90-52Z"/>
  <rect x="256" y="160" width="90" height="125" class="navy"/>
  <rect x="166" y="285" width="90" height="125" class="navy"/>
  <path class="navy" d="M188 244v-72h27c23 0 38 11 38 31c0 18-13 29-35 31h-10v38Zm20-55h8c11 0 17-5 17-14s-6-13-17-13h-8Z"/>
  <path class="navy" d="M284 236c10 1 20 6 28 14c8-8 18-13 28-14v49c-8-7-18-10-28-10c-10 0-20 3-28 10Z"/>
  <path class="white" d="M302 225c8 1 16 5 22 10c6-5 14-9 22-10v38c-6-5-14-7-22-7c-8 0-16 2-22 7Z"/>
  <path class="white" d="M262 225c8 1 16 5 22 10v28c-6-5-14-7-22-7c-8 0-16 2-22 7v-38c6 1 14 5 22 10Z" opacity=".98"/>
  <g transform="translate(191 313)">
    <circle cx="0" cy="0" r="31" class="white"/>
    <path class="line" stroke-width="5" d="M-22 0h44M0-22v44M-18-14c10 4 26 4 36 0M-18 14c10-4 26-4 36 0"/>
    <ellipse cx="0" cy="0" rx="12" ry="31" class="line" stroke-width="5"/>
  </g>
  <path class="navy" d="M279 367v-68h33c20 0 32 9 32 24c0 11-7 19-18 22l22 44h-22l-19-40h-8v40Zm20-55h9c10 0 16-4 16-11c0-8-6-11-16-11h-9Z"/>
  <path id="topArc" d="M82 171a210 210 0 0 1 348 0" fill="none"/>
  <text font-family="Arial, Helvetica, sans-serif" font-size="32" font-weight="700" letter-spacing="2" class="white">
    <textPath href="#topArc" startOffset="50%" text-anchor="middle">INSTITUTO FERNANDO RAMIREZ</textPath>
  </text>
</svg>
